<svg width="49" height="16" viewBox="0 0 49 16" fill="none" xmlns="http://www.w3.org/2000/svg">
<path d="M0.5 3C0.5 1.61929 1.61929 0.5 3 0.5H44C45.3807 0.5 46.5 1.61929 46.5 3V13C46.5 14.3807 45.3807 15.5 44 15.5H3C1.61929 15.5 0.5 14.3807 0.5 13V3Z" fill="white" stroke="#383434"/>
<path d="M4 3H10V13H4V3Z" fill="#383434"/>
<path d="M15 3H21V13H15V3Z" fill="#383434"/>
<path d="M26 3H32V13H26V3Z" fill="#383434"/>
<path d="M36 3H42V13H36V3Z" fill="#383434"/>
<path d="M47 4H49V12H47V4Z" fill="#383434"/>
</svg>
