<svg height="24" viewBox="0 0 24 24" width="24" xmlns="http://www.w3.org/2000/svg"><g fill="#494c4e"><path d="m14 15c0 .74-.4 1.38-1 1.73v2.27c0 .55-.45 1-1 1s-1-.45-1-1v-2.27c-.6-.35-1-.99-1-1.73 0-1.1.9-2 2-2s2 .9 2 2z" /><path d="m19 9h-1v-4c0-2.76-2.24-5-5-5h-2c-2.76 0-5 2.24-5 5v4h-1c-1.1 0-2 .9-2 2v11c0 1.1.9 2 2 2h14c1.1 0 2-.9 2-2v-11c0-1.1-.9-2-2-2zm-11-4c0-1.65 1.35-3 3-3h2c1.65 0 3 1.35 3 3v4h-8zm11 16.5c0 .28-.22.5-.5.5h-13c-.28 0-.5-.22-.5-.5v-10c0-.28.22-.5.5-.5h13c.28 0 .5.22.5.5z" /></g></svg>